# xmcd CD database file
#
# Track frame offsets:
#	150
#	22760
#	44972
#	69281
#	91070
#	102625
#	115165
#	123847
#	137087
#	159483
#	180862
#	202508
#
# Disc length: 2818 seconds
#
# Revision: 1
# Processed by: cddbd v1.5.1PL2 Copyright (c) Steve Scherf et al.
# Submitted via: CDex 1.51
#
DISCID=900b000c
DTITLE=A.A. Milne - Winnie de Poeh
DYEAR=2004
DGENRE=Luisterboek
TTITLE0=Hoofdstuk 4-1
TTITLE1=Hoofdstuk 4-2
TTITLE2=Hoofdstuk 4-3
TTITLE3=Hoofdstuk 4-4
TTITLE4=Hoofdstuk 4-5
TTITLE5=Hoofdstuk 5-1
TTITLE6=Hoofdstuk 5-2
TTITLE7=Hoofdstuk 5-3
TTITLE8=Hoofdstuk 5-4
TTITLE9=Hoofdstuk 5-5
TTITLE10=Hoofdstuk 5-6
TTITLE11=Hoofdstuk 5-7
EXTD=YEAR: 2004
EXTT0=
EXTT1=
EXTT2=
EXTT3=
EXTT4=
EXTT5=
EXTT6=
EXTT7=
EXTT8=
EXTT9=
EXTT10=
EXTT11=
PLAYORDER=
